Bringing Godzilla Down to Size: The Art of Japanese Special Effects (2008)

For more than 50 years, Gojira, Mosura, Kingu Ghidorâ and other monsters at Tôhô Kabushiki Kaisha have been created with traditional, handmade special-effects techniques. 
Through interviews with actors, filmmakers, special-effects artists, and monster stuntmen from the golden age of Japanese sci-fi, this documentary goes behind the scenes of this unique and outlandish genre. 

Hardcoded subs when necessary. 
 
http://www.imdb.com/title/tt1276943/

Review
 
http://www.scifijapan.com/articles/2008/07/26/bringing-godzilla-down-to-size-the-art-of-japanese-special-effects-first-look-part-1/
 
http://www.scifijapan.com/articles/2008/07/28/bringing-godzilla-down-to-size-the-art-of-japanese-special-effects-first-look-part-2/


Media Info


General
Complete name : D:\downloads\Bringing.Godzilla.Down.to.Size.PHaTT.DVDRIP\Bringing Godzilla Down to Size.avi
Format : AVI
Format/Info : Audio Video Interleave
File size : 699 MiB
Duration : 1h 9mn
Overall bit rate : 1 417 Kbps
Writing application : VirtualDubMod 1.5.4.1 (build 2178/release)
Writing library : VirtualDubMod build 2178/release

Video
ID : 0
Format : MPEG-4 Visual
Format profile : Advanced Simple@L5
Format settings, BVOP : 1
Format settings, QPel : No
Format settings, GMC : No warppoints
Format settings, Matrix : Custom
Codec ID : XVID
Codec ID/Hint : XviD
Duration : 1h 9mn
Bit rate : 1 232 Kbps
Width : 720 pixels
Height : 416 pixels
Display aspect ratio : 16:9
Frame rate : 29.970 fps
Color space : YUV
Chroma subsampling : 4:2:0
Bit depth : 8 bits
Scan type : Progressive
Compression mode : Lossy
Bits/(Pixel*Frame) : 0.137
Stream size : 608 MiB (87%)
Writing library : XviD 1.2.1 (UTC 2008-12-04)

Audio
ID : 1
Format : MPEG Audio
Format version : Version 1
Format profile : Layer 3
Mode : Joint stereo
Mode extension : MS Stereo
Codec ID : 55
Codec ID/Hint : MP3
Duration : 1h 9mn
Bit rate mode : Variable
Bit rate : 171 Kbps
Nominal bit rate : 192 Kbps
Channel(s) : 2 channels
Sampling rate : 48.0 KHz
Compression mode : Lossy
Stream size : 84.5 MiB (12%)
Alignment : Aligned on interleaves
Interleave, duration : 24 ms (0.72 video frame)
Interleave, preload duration : 107 ms
Writing library : LAME3.98r
Encoding settings : -m j -V 4 -q 2 -lowpass 18.6 --abr 192
second item